<?xml version="1.0" encoding="UTF-8"?>
<svg version="1.1" xmlns="http://www.w3.org/2000/svg" width="512" height="464">
<path d="M0 0 C168.96 0 337.92 0 512 0 C512 153.12 512 306.24 512 464 C343.04 464 174.08 464 0 464 C0 310.88 0 157.76 0 0 Z " fill="#000000" transform="translate(0,0)"/>
<path d="M0 0 C168.96 0 337.92 0 512 0 C512 153.12 512 306.24 512 464 C343.04 464 174.08 464 0 464 C0 310.88 0 157.76 0 0 Z M23 14 C23 159.86 23 305.72 23 456 C169.19 456 315.38 456 466 456 C466 310.14 466 164.28 466 14 C319.81 14 173.62 14 23 14 Z " fill="#26292A" transform="translate(0,0)"/>
<path d="M0 0 C0.495 2.475 0.495 2.475 1 5 C2.65 5 4.3 5 6 5 C6.66 3.35 7.32 1.7 8 0 C17.0035563 0.34629063 25.3952325 4.14698989 31.9375 10.375 C38.17533483 17.29580944 43 25.49433668 43 35 C41.02 35.33 39.04 35.66 37 36 C37 37.65 37 39.3 37 41 C38.65 41.66 40.3 42.32 42 43 C41.65633445 53.48179928 37.21193833 61.51567178 29.61328125 68.66015625 C27.09293867 70.75332212 25.32175079 71.94523391 22.0625 72.5 C19 72 19 72 16.875 69.25 C16.25625 68.1775 15.6375 67.105 15 66 C11.32785536 61.73557397 8.12017395 60.19286391 2.49487305 59.68115234 C1.18043213 59.64973145 -0.13400879 59.61831055 -1.48828125 59.5859375 C-2.19147995 59.56657135 -2.89467865 59.5472052 -3.6191864 59.5272522 C-5.85017019 59.46779817 -8.08120654 59.42120951 -10.3125 59.375 C-11.83140186 59.33678863 -13.35028278 59.29773508 -14.86914062 59.2578125 C-18.57923467 59.16212584 -22.28948651 59.07796928 -26 59 C-26.01458252 58.42032471 -26.02916504 57.84064941 -26.04418945 57.2434082 C-26.11898528 54.59912447 -26.21553898 51.95605998 -26.3125 49.3125 C-26.33505859 48.40048828 -26.35761719 47.48847656 -26.38085938 46.54882812 C-26.64722185 39.78502138 -26.64722185 39.78502138 -30 34 C-32.08533633 33.12177688 -32.08533633 33.12177688 -34 33 C-34.72955746 26.28807138 -32.69572978 21.58096722 -29 16 C-21.51488281 6.88537943 -12.22093553 -0.33947043 0 0 Z " fill="#D7C279" transform="translate(322,153)"/>
<path d="M0 0 C37.62 0 75.24 0 114 0 C114 10.56 114 21.12 114 32 C76.38 32 38.76 32 0 32 C0 29.36 0 26.72 0 24 C1.58252563 23.96241577 1.58252563 23.96241577 3.19702148 23.92407227 C7.09770628 23.83015891 10.99820625 23.72989966 14.89868164 23.62768555 C16.58939299 23.58427561 18.28014991 23.54260511 19.97094727 23.50268555 C22.39613606 23.44512906 24.82109415 23.38139351 27.24609375 23.31640625 C28.00651474 23.29969376 28.76693573 23.28298126 29.55039978 23.26576233 C33.07082031 23.47908732 33.07082031 23.47908732 36 22 C36.16666667 19.5 36.16666667 19.5 36 17 C33.99496491 14.99496491 29.99974556 15.74411337 27.24609375 15.68359375 C26.08292381 15.6524221 26.08292381 15.6524221 24.89625549 15.62062073 C22.41009692 15.55504198 19.92382955 15.49620201 17.4375 15.4375 C15.75584796 15.39432267 14.07420706 15.35070864 12.39257812 15.30664062 C8.26183129 15.19935221 4.13097464 15.09810868 0 15 C0 10.05 0 5.1 0 0 Z " fill="#E6D889" transform="translate(174,193)"/>
<path d="M0 0 C168.96 0 337.92 0 512 0 C512 1.32 512 2.64 512 4 C343.04 4 174.08 4 0 4 C0 2.68 0 1.36 0 0 Z " fill="#181A1B" transform="translate(0,0)"/>
<path d="M0 0 C0.78890625 0.31710938 1.5778125 0.63421875 2.390625 0.9609375 C18.06259208 7.90982856 26.81852034 19.86327408 33.0546875 35.37109375 C37.45160157 47.59887543 35.66439063 62.2066407 30.27734375 73.81640625 C25.68494158 83.31505842 25.68494158 83.31505842 24 85 C22.31391034 85.07205511 20.62499341 85.08386068 18.9375 85.0625 C17.55884766 85.04896484 17.55884766 85.04896484 16.15234375 85.03515625 C15.08693359 85.01775391 15.08693359 85.01775391 14 85 C15.45374752 81.96034609 17.13662975 79.15814994 18.9375 76.3125 C25.6167034 65.25108753 28.1659772 52.05242491 25.12890625 39.359375 C22.63101977 31.79200745 19.5079624 25.76388793 14 20 C13.33097656 19.29101562 12.66195312 18.58203125 11.97265625 17.8515625 C1.93042854 8.08172795 -9.75296415 5.69080213 -23.21142578 5.60839844 C-30.67197029 5.71892502 -36.4919405 7.24535029 -43 11 C-44.0725 11.598125 -45.145 12.19625 -46.25 12.8125 C-57.35915591 21.64932856 -63.04191708 31.44938671 -67 45 C-69.31 45 -71.62 45 -74 45 C-74.99726214 34.62847374 -70.08304085 25.51567955 -63.984375 17.37109375 C-48.99175432 -0.54331718 -22.33515782 -10.02636647 0 0 Z " fill="#D2BE74" transform="translate(346,140)"/>
<path d="M0 0 C20.46 0 40.92 0 62 0 C62 3.3 62 6.6 62 10 C54.2771703 10.19792368 46.55581959 10.34301411 38.83105469 10.43945312 C36.20416548 10.4796573 33.57745497 10.5342309 30.95117188 10.60351562 C27.1727288 10.70069192 23.39665311 10.74595988 19.6171875 10.78125 C18.44509735 10.82254028 17.2730072 10.86383057 16.06539917 10.90637207 C8.07346707 10.91075942 8.07346707 10.91075942 4.92095947 8.23608398 C2.92337564 5.61646209 1.46771558 2.93543116 0 0 Z " fill="#DFCB7C" transform="translate(226,280)"/>
<path d="M0 0 C0.33 0 0.66 0 1 0 C1 4.62 1 9.24 1 14 C2.57467041 13.98428955 2.57467041 13.98428955 4.18115234 13.96826172 C8.06865033 13.93211547 11.95613341 13.90911922 15.84375 13.89013672 C17.52769466 13.88006683 19.21162179 13.86641012 20.89550781 13.84912109 C23.31319501 13.82491574 25.73065143 13.81352704 28.1484375 13.8046875 C28.9036972 13.79436493 29.65895691 13.78404236 30.43710327 13.77340698 C32.2929398 13.77300682 34.1481928 13.87777284 36 14 C38 16 38 16 38.25 18.5 C38 21 38 21 36 23 C33.34708243 23.17510386 30.80013826 23.23155483 28.1484375 23.1953125 C27.37440582 23.1924826 26.60037415 23.18965271 25.80288696 23.18673706 C23.32676843 23.17552754 20.8510095 23.15042203 18.375 23.125 C16.69792188 23.11497118 15.02083811 23.10584516 13.34375 23.09765625 C9.22902777 23.07558574 5.11457489 23.04105102 1 23 C1 25.64 1 28.28 1 31 C0.67 31 0.34 31 0 31 C0 28.36 0 25.72 0 23 C-1.89685547 23.05220703 -1.89685547 23.05220703 -3.83203125 23.10546875 C-5.49217423 23.13360677 -7.15233156 23.16090691 -8.8125 23.1875 C-9.64587891 23.21263672 -10.47925781 23.23777344 -11.33789062 23.26367188 C-12.54155273 23.27817383 -12.54155273 23.27817383 -13.76953125 23.29296875 C-14.87711792 23.31653442 -14.87711792 23.31653442 -16.00708008 23.34057617 C-18.57109294 22.90240418 -19.46308356 22.06669734 -21 20 C-20.8125 17.375 -20.8125 17.375 -20 15 C-17.703463 13.8517315 -16.41686833 13.88438825 -13.8671875 13.90234375 C-13.06152344 13.90556641 -12.25585938 13.90878906 -11.42578125 13.91210938 C-10.58402344 13.92048828 -9.74226562 13.92886719 -8.875 13.9375 C-8.02550781 13.94201172 -7.17601562 13.94652344 -6.30078125 13.95117188 C-4.20049091 13.96297126 -2.1002367 13.98090694 0 14 C0 9.38 0 4.76 0 0 Z " fill="#CCB26A" transform="translate(173,194)"/>
<path d="M0 0 C3.96661775 1.55583842 6.60259587 3.4038938 9 7 C9.78350219 11.80501784 10.45145002 16.97630728 7.50390625 21.0859375 C4.10362039 23.98431006 1.24768693 25.8800301 -3.25 26.3125 C-8.58556357 25.8678697 -11.4324517 23.82880635 -14.875 19.8125 C-16.48942639 15.77643403 -16.92637226 12.27444209 -16 8 C-12.00496175 1.42712362 -7.76479035 -1.03530538 0 0 Z " fill="#B49351" transform="translate(326,284)"/>
<path d="M0 0 C3.8076546 2.01159111 7.04834016 4.09668033 9 8 C9.53984503 13.57839862 9.22031416 17.22505142 6 22 C2.25183477 25.40742294 -1.68445522 25.56715484 -6.55859375 25.421875 C-11.2423439 24.61252297 -13.60598525 21.90092921 -16.375 18.125 C-17.75017467 13.44940611 -17.55896687 10.07652879 -15.3125 5.75 C-10.98419166 0.60282252 -6.75560412 -1.20541172 0 0 Z " fill="#EDE18F" transform="translate(217,284)"/>
<path d="M0 0 C1.4540625 0.0309375 1.4540625 0.0309375 2.9375 0.0625 C3.9375 2.0625 3.9375 2.0625 3.7265625 5.44140625 C3.38341447 11.87765114 3.38341447 11.87765114 4.9375 18.0625 C7.71858889 20.91080825 11.06240625 22.5925022 14.65283203 24.23461914 C16.69140625 25.16796875 16.69140625 25.16796875 19.9375 27.0625 C20.52734375 29.67578125 20.52734375 29.67578125 19.9375 32.0625 C19.2775 32.7225 18.6175 33.3825 17.9375 34.0625 C12.83198567 33.9112255 8.83343486 30.74691826 4.6875 28.0625 C3.58921875 27.36640625 3.58921875 27.36640625 2.46875 26.65625 C-2.8692602 23.2557398 -2.8692602 23.2557398 -4.0625 22.0625 C-4.16149523 20.51294441 -4.19329524 18.95896327 -4.1953125 17.40625 C-4.19660156 16.46652344 -4.19789063 15.52679688 -4.19921875 14.55859375 C-4.19535156 13.56988281 -4.19148438 12.58117187 -4.1875 11.5625 C-4.19136719 10.57378906 -4.19523437 9.58507812 -4.19921875 8.56640625 C-4.19792969 7.62667969 -4.19664062 6.68695313 -4.1953125 5.71875 C-4.19418457 4.85056641 -4.19305664 3.98238281 -4.19189453 3.08789062 C-3.97906272 -0.24352956 -3.41024486 0.06959683 0 0 Z " fill="#090805" transform="translate(326.0625,171.9375)"/>
<path d="M0 0 C5.10863896 -0.0246501 10.21724359 -0.04283607 15.32592773 -0.05493164 C17.06519168 -0.05997204 18.80445136 -0.0668043 20.54370117 -0.07543945 C23.03825937 -0.08751792 25.53276173 -0.09323108 28.02734375 -0.09765625 C28.80963852 -0.10281754 29.59193329 -0.10797882 30.39793396 -0.11329651 C32.26567114 -0.11349226 34.13329204 -0.06199694 36 0 C37 1 37 1 37.125 3.5 C37 6 37 6 36 7 C33.3337397 7.08855161 30.69352886 7.11524673 28.02734375 7.09765625 C27.22970108 7.0962413 26.43205841 7.09482635 25.61024475 7.09336853 C23.05262565 7.08775316 20.49509282 7.07519812 17.9375 7.0625 C16.20768355 7.05748698 14.47786574 7.05292373 12.74804688 7.04882812 C8.49866447 7.03777875 4.24934688 7.02050386 0 7 C0 4.69 0 2.38 0 0 Z " fill="#020101" transform="translate(174,209)"/>
<path d="M0 0 C8.58 0 17.16 0 26 0 C24.35 2.31 22.7 4.62 21 7 C20.67 7.99 20.34 8.98 20 10 C13.4 10 6.8 10 0 10 C0 6.7 0 3.4 0 0 Z " fill="#ECDF8C" transform="translate(174,280)"/>
<path d="M0 0 C3.3 0 6.6 0 10 0 C10.99 0.99 11.98 1.98 13 3 C12.6875 6.6875 12.6875 6.6875 12 10 C11.01 10.33 10.02 10.66 9 11 C9.433125 11.55429688 9.86625 12.10859375 10.3125 12.6796875 C11.1478125 13.76636719 11.1478125 13.76636719 12 14.875 C12.556875 15.59429687 13.11375 16.31359375 13.6875 17.0546875 C15 19 15 19 15 21 C13.68 21 12.36 21 11 21 C9.62109375 19.50390625 9.62109375 19.50390625 8.4375 17.5625 C6.52207895 14.39618112 6.52207895 14.39618112 3 13 C3 15.64 3 18.28 3 21 C2.01 21 1.02 21 0 21 C0 14.07 0 7.14 0 0 Z " fill="#A49155" transform="translate(171,243)"/>
<path d="M0 0 C7.59 0 15.18 0 23 0 C23 3.3 23 6.6 23 10 C10.97044607 11.20563458 10.97044607 11.20563458 6 10 C2.53901511 6.87359527 1.72546785 4.45282025 0 0 Z " fill="#AD8846" transform="translate(336,280)"/>
<path d="M0 0 C4.1625612 -0.07453622 8.3247618 -0.12878254 12.48779297 -0.16479492 C13.90192437 -0.17981825 15.31600968 -0.20024305 16.72998047 -0.22631836 C18.77062397 -0.26298954 20.81064792 -0.27979036 22.8515625 -0.29296875 C24.07697754 -0.3086792 25.30239258 -0.32438965 26.56494141 -0.34057617 C30.32831277 0.03255127 32.75093438 1.11449806 36 3 C36 3.66 36 4.32 36 5 C24.12 5 12.24 5 0 5 C0 3.35 0 1.7 0 0 Z " fill="#C1B069" transform="translate(296,220)"/>
<path d="M0 0 C4.06270321 2.0313516 5.81185649 3.75477657 8.75 7.125 C9.94882813 8.49011719 9.94882813 8.49011719 11.171875 9.8828125 C12.07679688 10.93082031 12.07679688 10.93082031 13 12 C13.33 8.04 13.66 4.08 14 0 C14.99 0 15.98 0 17 0 C17 6.6 17 13.2 17 20 C12.98650345 17.99325172 11.18594187 16.30053595 8.25 13 C7.45078125 12.113125 6.6515625 11.22625 5.828125 10.3125 C4 8 4 8 4 6 C3.34 6 2.68 6 2 6 C2 10.62 2 15.24 2 20 C1.34 20 0.68 20 0 20 C0 13.4 0 6.8 0 0 Z " fill="#C0AD6A" transform="translate(200,243)"/>
<path d="M0 0 C9 0 9 0 12 2 C12.37331109 5.42201828 12.63763183 7.90185629 10.875 10.9375 C8.214973 12.44484863 5.99793795 12.19986253 3 12 C3 14.64 3 17.28 3 20 C2.01 20 1.02 20 0 20 C0 13.4 0 6.8 0 0 Z " fill="#AC9152" transform="translate(154,243)"/>
<path d="M0 0 C0.33 0 0.66 0 1 0 C1 4.62 1 9.24 1 14 C12.55 14 24.1 14 36 14 C36 14.33 36 14.66 36 15 C24.45 15 12.9 15 1 15 C1 17.31 1 19.62 1 22 C12.55 22 24.1 22 36 22 C36 22.33 36 22.66 36 23 C24.45 23 12.9 23 1 23 C1 25.64 1 28.28 1 31 C0.67 31 0.34 31 0 31 C0 28.36 0 25.72 0 23 C-5.94 23 -11.88 23 -18 23 C-18 22.67 -18 22.34 -18 22 C-12.06 22 -6.12 22 0 22 C0 19.69 0 17.38 0 15 C-5.94 15 -11.88 15 -18 15 C-18 14.67 -18 14.34 -18 14 C-12.06 14 -6.12 14 0 14 C0 9.38 0 4.76 0 0 Z " fill="#73673D" transform="translate(173,194)"/>
<path d="M0 0 C0.99 0.66 1.98 1.32 3 2 C2.67 2.99 2.34 3.98 2 5 C1.06027344 4.85691406 1.06027344 4.85691406 0.1015625 4.7109375 C-0.71570313 4.60007813 -1.53296875 4.48921875 -2.375 4.375 C-3.18710937 4.25898438 -3.99921875 4.14296875 -4.8359375 4.0234375 C-5.55007813 4.01570312 -6.26421875 4.00796875 -7 4 C-9.22052862 5.80599761 -9.22052862 5.80599761 -9.265625 8.3125 C-9.26046875 9.199375 -9.2553125 10.08625 -9.25 11 C-9.25515625 11.886875 -9.2603125 12.77375 -9.265625 13.6875 C-9.22052862 16.19400239 -9.22052862 16.19400239 -7 18 C-3.306493 18.20146402 -0.52059568 18.17353189 3 17 C3 17.99 3 18.98 3 20 C-0.1425518 22.09503453 -2.16149992 22.60827634 -5.92578125 22.50390625 C-9.29464183 21.68548249 -10.91174726 19.79776741 -12.92578125 17.06640625 C-14.86483652 13.33636902 -14.72928843 11.17683376 -14 7 C-10.36343679 0.84581611 -6.95790719 -0.36620564 0 0 Z " fill="#BAB16B" transform="translate(314,242)"/>
<path d="M0 0 C3.63 0 7.26 0 11 0 C11 0.99 11 1.98 11 3 C8.36 3 5.72 3 3 3 C3 5.31 3 7.62 3 10 C4.98 10 6.96 10 9 10 C9 10.66 9 11.32 9 12 C7.02 12 5.04 12 3 12 C3 14.31 3 16.62 3 19 C5.64 19 8.28 19 11 19 C11 19.99 11 20.98 11 22 C7.37 22 3.74 22 0 22 C0 14.74 0 7.48 0 0 Z " fill="#CFC77B" transform="translate(286,242)"/>
<path d="M0 0 C1.93166016 0.01740234 1.93166016 0.01740234 3.90234375 0.03515625 C5.19269531 0.04417969 6.48304688 0.05320313 7.8125 0.0625 C8.81152344 0.07410156 9.81054688 0.08570313 10.83984375 0.09765625 C11.46484375 2.47265625 11.46484375 2.47265625 11.83984375 5.09765625 C9.83984375 7.09765625 9.83984375 7.09765625 6.87109375 7.36328125 C5.70578125 7.358125 4.54046875 7.35296875 3.33984375 7.34765625 C2.17453125 7.3528125 1.00921875 7.35796875 -0.19140625 7.36328125 C-3.16015625 7.09765625 -3.16015625 7.09765625 -5.16015625 5.09765625 C-4.54467285 1.0354658 -4.26829664 0.13190039 0 0 Z " fill="#BD9F5B" transform="translate(136.16015625,208.90234375)"/>
<path d="M0 0 C3.3 0 6.6 0 10 0 C10 0.66 10 1.32 10 2 C7.69 2 5.38 2 3 2 C3 3.98 3 5.96 3 8 C4.98 8 6.96 8 9 8 C9 8.99 9 9.98 9 11 C7.02 11 5.04 11 3 11 C3 13.31 3 15.62 3 18 C5.31 18 7.62 18 10 18 C10 18.66 10 19.32 10 20 C6.7 20 3.4 20 0 20 C0 13.4 0 6.8 0 0 Z " fill="#B3A866" transform="translate(241,243)"/>
<path d="M0 0 C1.3303125 0.00773438 1.3303125 0.00773438 2.6875 0.015625 C3.574375 0.01046875 4.46125 0.0053125 5.375 0 C7.6875 0.265625 7.6875 0.265625 9.6875 2.265625 C9.13194444 6.82118056 9.13194444 6.82118056 7.6875 8.265625 C5.85634117 8.36413671 4.02130067 8.39535129 2.1875 8.390625 C1.1871875 8.39320313 0.186875 8.39578125 -0.84375 8.3984375 C-3.3125 8.265625 -3.3125 8.265625 -4.3125 7.265625 C-4.5 4.828125 -4.5 4.828125 -4.3125 2.265625 C-2.3125 0.265625 -2.3125 0.265625 0 0 Z " fill="#B69B59" transform="translate(150.3125,184.734375)"/>
<path d="M0 0 C4.29 0 8.58 0 13 0 C9.46666667 7.06666667 9.46666667 7.06666667 7 10 C3.25 10.375 3.25 10.375 0 10 C0 6.7 0 3.4 0 0 Z " fill="#BFA561" transform="translate(296,280)"/>
<path d="M0 0 C0.99 0 1.98 0 3 0 C3 6.27 3 12.54 3 19 C5.64 19 8.28 19 11 19 C11 19.99 11 20.98 11 22 C7.37 22 3.74 22 0 22 C0 14.74 0 7.48 0 0 Z " fill="#CAC276" transform="translate(271,242)"/>
<path d="M0 0 C5.28 0 10.56 0 16 0 C16 0.66 16 1.32 16 2 C13.69 2 11.38 2 9 2 C9 8.27 9 14.54 9 21 C8.01 21 7.02 21 6 21 C6 14.73 6 8.46 6 2 C4.02 2 2.04 2 0 2 C0 1.34 0 0.68 0 0 Z " fill="#CEBB73" transform="translate(221,243)"/>
<path d="M0 0 C3.3 0 6.6 0 10 0 C10.66 0.99 11.32 1.98 12 3 C8.23375329 4.25541557 6.62811066 3.37061958 3 2 C3 4.97 3 7.94 3 11 C3.99 11.33 4.98 11.66 6 12 C5.01 12 4.02 12 3 12 C3 14.97 3 17.94 3 21 C2.01 21 1.02 21 0 21 C0 14.07 0 7.14 0 0 Z " fill="#B59B5B" transform="translate(171,243)"/>
<path d="M0 0 C6.6 0 13.2 0 20 0 C20 1.33333333 20 2.66666667 20 4 C13.4 4 6.8 4 0 4 C0 2.68 0 1.36 0 0 Z " fill="#DBCB7E" transform="translate(297,220)"/>
<path d="M0 0 C5.28 0 10.56 0 16 0 C16 0.66 16 1.32 16 2 C13.69 2 11.38 2 9 2 C9 7.94 9 13.88 9 20 C8.34 20 7.68 20 7 20 C7 14.06 7 8.12 7 2 C4.69 2 2.38 2 0 2 C0 1.34 0 0.68 0 0 Z " fill="#F1E294" transform="translate(319,243)"/>
<path d="M0 0 C0.99 0 1.98 0 3 0 C3 6.93 3 13.86 3 21 C2.01 21 1.02 21 0 21 C0 14.07 0 7.14 0 0 Z " fill="#B9A263" transform="translate(190,243)"/>
<path d="M0 0 C0.66 0 1.32 0 2 0 C2 2.97 2 5.94 2 9 C6.92628866 10.23157217 11.14125899 10.61958034 16 9 C16 9.99 16 10.98 16 12 C12.30279853 14.46480098 9.28844034 14.7842673 5 14 C2 12.0625 2 12.0625 0 9 C-0.39265524 5.95054764 -0.2994658 3.05455119 0 0 Z " fill="#F2E894" transform="translate(301,250)"/>
<path d="M0 0 C0.66 0 1.32 0 2 0 C2 5.94 2 11.88 2 18 C4.64 18 7.28 18 10 18 C10 18.66 10 19.32 10 20 C6.7 20 3.4 20 0 20 C0 13.4 0 6.8 0 0 Z " fill="#F1E592" transform="translate(257,243)"/>
<path d="M0 0 C0.66 0 1.32 0 2 0 C2 6.6 2 13.2 2 20 C0.68 19.34 -0.64 18.68 -2 18 C-1.505 16.515 -1.505 16.515 -1 15 C-0.77281504 12.43365139 -0.58391816 9.88321893 -0.4375 7.3125 C-0.39431641 6.61060547 -0.35113281 5.90871094 -0.30664062 5.18554688 C-0.2008264 3.45724794 -0.09993419 1.7286489 0 0 Z " fill="#D5C076" transform="translate(215,243)"/>
<path d="M0 0 C2.97 0.495 2.97 0.495 6 1 C6.04254356 2.99954746 6.04080783 5.00041636 6 7 C5 8 5 8 2.4375 8.0625 C1.633125 8.041875 0.82875 8.02125 0 8 C0 5.36 0 2.72 0 0 Z " fill="#131009" transform="translate(174,245)"/>
<path d="M0 0 C2.475 0.495 2.475 0.495 5 1 C5.625 3.375 5.625 3.375 6 6 C5.34 6.66 4.68 7.32 4 8 C2.68 8 1.36 8 0 8 C0 5.36 0 2.72 0 0 Z " fill="#0B0905" transform="translate(157,245)"/>
<path d="M0 0 C0.99 0.495 0.99 0.495 2 1 C2 3.64 2 6.28 2 9 C4.64 9 7.28 9 10 9 C10 9.66 10 10.32 10 11 C6.7 11 3.4 11 0 11 C0 7.37 0 3.74 0 0 Z " fill="#EBDD86" transform="translate(241,252)"/>
<path d="M0 0 C2.5999298 2.51027705 4.99091227 4.9863684 7 8 C7 8.66 7 9.32 7 10 C5.68 10 4.36 10 3 10 C0.6875 7.25 0.6875 7.25 -1 4 C-0.75 1.625 -0.75 1.625 0 0 Z " fill="#AD975D" transform="translate(179,254)"/>
<path d="M0 0 C2.97 0 5.94 0 9 0 C9.33 0.66 9.66 1.32 10 2 C7.36 2 4.72 2 2 2 C2 4.64 2 7.28 2 10 C0 8 0 8 -0.1953125 6.0546875 C-0.13020833 4.03645833 -0.06510417 2.01822917 0 0 Z " fill="#BEA05C" transform="translate(154,243)"/>
<path d="M0 0 C6.625 -0.25 6.625 -0.25 10 2 C9.67 2.99 9.34 3.98 9 5 C5.7 4.34 2.4 3.68 -1 3 C-0.67 2.01 -0.34 1.02 0 0 Z " fill="#CBC177" transform="translate(307,242)"/>
<path d="M0 0 C3.3 0 6.6 0 10 0 C10 0.66 10 1.32 10 2 C7.36 2 4.72 2 2 2 C1.67 3.65 1.34 5.3 1 7 C0.67 7 0.34 7 0 7 C0 4.69 0 2.38 0 0 Z " fill="#E6D383" transform="translate(241,243)"/>
<path d="M0 0 C0.99 0.33 1.98 0.66 3 1 C2.01 2.485 2.01 2.485 1 4 C0.34 4 -0.32 4 -1 4 C-1.66 6.97 -2.32 9.94 -3 13 C-3.33 13 -3.66 13 -4 13 C-4.45732667 7.28341664 -3.52273754 4.51350747 0 0 Z " fill="#C3BA77" transform="translate(204,287)"/>
<path d="M0 0 C0.33 0.66 0.66 1.32 1 2 C3.64 2 6.28 2 9 2 C8.67 2.66 8.34 3.32 8 4 C4.7 4 1.4 4 -2 4 C-1.34 2.68 -0.68 1.36 0 0 Z " fill="#AD934F" transform="translate(362,221)"/>
<path d="M0 0 C0.66 0.33 1.32 0.66 2 1 C1.26160754 2.44349674 0.50873357 3.87959051 -0.25 5.3125 C-0.87648438 6.51326172 -0.87648438 6.51326172 -1.515625 7.73828125 C-3.08656783 10.13190204 -4.6267037 11.43301591 -7 13 C-6.6875 11.0625 -6.6875 11.0625 -6 9 C-5.01 8.67 -4.02 8.34 -3 8 C-1.82917122 5.07085835 -1.82917122 5.07085835 -1 2 C-0.67 1.34 -0.34 0.68 0 0 Z " fill="#B49757" transform="translate(360,206)"/>
<path d="M0 0 C0 0.99 0 1.98 0 3 C-3.08888522 5.05925681 -3.70935927 5.2390374 -7.1875 5.125 C-9.0746875 5.063125 -9.0746875 5.063125 -11 5 C-8.19602214 1.57291595 -4.43232801 0 0 0 Z " fill="#C0B56F" transform="translate(317,259)"/>
<path d="M0 0 C0.763125 0.20625 1.52625 0.4125 2.3125 0.625 C2.3125 1.615 2.3125 2.605 2.3125 3.625 C-0.3275 2.965 -2.9675 2.305 -5.6875 1.625 C-2.6875 -0.375 -2.6875 -0.375 0 0 Z " fill="#B7A05C" transform="translate(179.6875,243.375)"/>
<path d="M0 0 C0.33 0 0.66 0 1 0 C0.67 2.31 0.34 4.62 0 7 C-2.31 7 -4.62 7 -7 7 C-6.67 6.01 -6.34 5.02 -6 4 C-6 4.66 -6 5.32 -6 6 C-4.68 6 -3.36 6 -2 6 C-1.34 4.02 -0.68 2.04 0 0 Z " fill="#F2E996" transform="translate(279,178)"/>
<path d="M0 0 C1.76462683 3.08809695 2 4.23312136 2 8 C0.35 8 -1.3 8 -3 8 C-3 7.34 -3 6.68 -3 6 C-2.01 6 -1.02 6 0 6 C0 4.02 0 2.04 0 0 Z " fill="#8B7947" transform="translate(363,180)"/>
<path d="M0 0 C0.99 0.33 1.98 0.66 3 1 C1.50260417 2.23697917 0.00520833 3.47395833 -1.4921875 4.7109375 C-2.71051161 5.75250992 -3.86660097 6.86660097 -5 8 C-4.45773019 4.20411134 -2.79872437 2.52788007 0 0 Z " fill="#E2D68B" transform="translate(302,160)"/>
<path d="M0 0 C0.33 0 0.66 0 1 0 C0.67 2.31 0.34 4.62 0 7 C-0.99 7.33 -1.98 7.66 -3 8 C-1.125 2.25 -1.125 2.25 0 0 Z " fill="#CDC280" transform="translate(292,171)"/>
</svg>
